
<svg xmlns="http://www.w3.org/2000/svg"  viewBox="0 0 16 20">  <path id="svg_1" fill="#fff" d="m8.02,5.979938c-0.73,0 -1.86,-0.83 -3.05,-0.8c-1.57,0.02 -3.01,0.91 -3.82,2.32c-1.63,2.83 -0.42,7.01 1.17,9.31c0.78,1.12 1.7,2.38 2.92,2.34c1.17,-0.05 1.61,-0.76 3.03,-0.76c1.41,0 1.81,0.76 3.05,0.73c1.26,-0.02 2.06,-1.14 2.83,-2.27c0.89,-1.3 1.26,-2.56 1.28,-2.63c-0.03,-0.01 -2.45,-0.94 -2.48,-3.74c-0.02,-2.34 1.91,-3.46 2,-3.51c-1.1,-1.61 -2.79,-1.79 -3.38,-1.83c-1.54,-0.12 -2.83,0.84 -3.55,0.84zm2.6,-2.36c0.65,-0.78 1.08,-1.87 0.96,-2.95c-0.93,0.04 -2.05,0.62 -2.72,1.4c-0.6,0.69 -1.12,1.8 -0.98,2.86c1.03,0.08 2.09,-0.53 2.74,-1.31"/>
</svg>
