<svg t="1567222994504" class="icon" viewBox="0 0 1024 1024" version="1.1" xmlns="http://www.w3.org/2000/svg" p-id="25379" width="200" height="200"><path d="M911.68 0h-800a64 64 0 0 0-64 64v896a64 64 0 0 0 64 64h800a64 64 0 0 0 64-64V64a64 64 0 0 0-64-64z m0 960h-800V64h800z" p-id="25380"></path><path d="M271.68 304.64h472a32 32 0 1 0 0-64h-472a32 32 0 0 0 0 64z m0 234.88h408.64a32 32 0 0 0 0-64H271.68a32 32 0 1 0 0 64z m0 198.4h376.64a32 32 0 1 0 0-64H271.68a32 32 0 0 0 0 64z" p-id="25381"></path></svg>
