<svg t="1570626020459" class="icon" viewBox="0 0 1024 1024" version="1.1" xmlns="http://www.w3.org/2000/svg" p-id="2494" width="200" height="200"><path d="M405.714 886.214H146.643c-33.214 0-59.786-26.571-59.786-59.786V117.857c0-33.214 26.571-59.786 59.786-59.786h569.071c33.214 0 59.786 26.571 59.786 59.786v283.429c0 13.286 8.857 22.143 22.143 22.143s22.143-8.857 22.143-22.143V120.072c0-57.571-46.5-104.071-104.071-104.071H146.644c-57.571 0-104.071 46.5-104.071 104.071v708.571c0 57.571 46.5 104.071 104.071 104.071h259.071c13.286 0 22.143-8.857 22.143-22.143s-11.071-24.357-22.143-24.357z m108.5-646.571c0-13.286-8.857-22.143-22.143-22.143H224.142c-13.286 0-22.143 8.857-22.143 22.143s8.857 22.143 22.143 22.143h267.929c11.071 0 22.143-8.857 22.143-22.143zM224.143 357C210.857 357 202 365.857 202 379.143s8.857 22.143 22.143 22.143h135.071c13.286 0 22.143-8.857 22.143-22.143S372.5 357 359.214 357H224.143z m478.286 93c-155 0-279 126.214-279 279s126.214 279 279 279c155 0 279-126.214 279-279s-126.214-279-279-279z m0 513.714c-130.643 0-234.714-106.286-234.714-234.714s106.286-234.714 234.714-234.714S937.143 600.572 937.143 729 830.857 963.714 702.429 963.714z m101.857-318.857L673.643 775.5l-73.071-73.071c-8.857-8.857-22.143-8.857-31 0s-8.857 22.143 0 31L658.143 822c4.429 4.429 11.071 6.643 15.5 6.643s11.071-2.214 15.5-6.643l146.143-146.143c8.857-8.857 8.857-22.143 0-31s-22.143-8.857-31 0z" p-id="2495"></path></svg>
