<?xml version="1.0" standalone="no"?><!DOCTYPE svg PUBLIC "-//W3C//DTD SVG 1.1//EN" "http://www.w3.org/Graphics/SVG/1.1/DTD/svg11.dtd"><svg t="1573370173535" class="icon" viewBox="0 0 1024 1024" version="1.1" xmlns="http://www.w3.org/2000/svg" p-id="2748" xmlns:xlink="http://www.w3.org/1999/xlink" width="200" height="200"><defs><style type="text/css"></style></defs><path d="M488.6784 819.2c110.08 0 197.12-87.04 197.12-197.12V299.52c0-110.08-87.04-197.12-197.12-197.12s-197.12 87.04-197.12 197.12v322.56c0 107.52 87.04 197.12 194.56 197.12h2.56z m-171.52-289.28h89.6v-28.16h-89.6v-53.76h89.6v-28.16h-89.6v-53.76h89.6v-28.16h-89.6v-38.4a171.52 171.52 0 0 1 343.04 0v38.4h-89.6v28.16h89.6v53.76h-89.6v28.16h89.6v53.76h-89.6v28.16h89.6v92.16a171.52 171.52 0 0 1-343.04 0v-92.16z" p-id="2749"></path><path d="M818.9184 481.28v-10.24h-61.44c-7.68 0-12.8 5.12-12.8 12.8s5.12 12.8 12.8 12.8h38.4c2.56 46.08 7.68 227.84-89.6 337.92-51.2 58.88-125.44 87.04-217.6 89.6-92.16-2.56-163.84-30.72-217.6-89.6-99.84-112.64-94.72-291.84-92.16-340.48h38.4c7.68 0 12.8-5.12 12.8-12.8s-5.12-12.8-12.8-12.8h-61.44v10.24c0 10.24-25.6 232.96 94.72 368.64 56.32 61.44 138.24 99.84 222.72 99.84h25.6c94.72-5.12 168.96-35.84 222.72-97.28 120.32-135.68 97.28-360.96 97.28-368.64z" p-id="2750"></path></svg>