<svg t="1584506955247" class="icon" viewBox="0 0 1024 1024" version="1.1" xmlns="http://www.w3.org/2000/svg" p-id="6400" width="200" height="200"><path d="M967.68 993.28H56.32c-14.336 0-25.6-11.264-25.6-25.6V56.32c0-14.336 11.264-25.6 25.6-25.6h683.52c6.656 0 13.312 2.56 17.92 7.68L985.6 266.24c4.608 4.608 7.68 11.264 7.68 17.92V967.68c0 14.336-11.264 25.6-25.6 25.6zM81.92 942.08h860.16V294.912L729.088 81.92H81.92v860.16z m430.08-100.864c-97.792 0-177.664-79.872-177.664-177.664S414.208 486.4 512 486.4s177.664 79.872 177.664 177.664-79.872 177.152-177.664 177.152z m0-303.616c-69.632 0-126.464 56.32-126.464 125.952 0 69.632 56.832 126.464 126.464 126.464s126.464-56.32 126.464-125.952c0-69.632-56.832-126.464-126.464-126.464z m76.288-151.552H208.384c-14.336 0-25.6-11.264-25.6-25.6V208.384c0-14.336 11.264-25.6 25.6-25.6h379.904c14.336 0 25.6 11.264 25.6 25.6v152.064c0 14.336-11.264 25.6-25.6 25.6z m-354.304-51.2h328.704V233.984H233.984v100.864z" p-id="6401"></path></svg>
