<svg t="1567222606549" class="icon" viewBox="0 0 1024 1024" version="1.1" xmlns="http://www.w3.org/2000/svg" p-id="16953" width="200" height="200"><path d="M1011.2 72.533333l-768 768C236.8 849.066667 226.133333 853.333333 213.333333 853.333333c-23.466667 0-42.666667-19.2-42.666667-42.666667 0-12.8 4.266667-23.466667 12.8-29.866667l768-768C957.866667 4.266667 968.533333 0 981.333333 0c23.466667 0 42.666667 19.2 42.666667 42.666667C1024 55.466667 1019.733333 66.133333 1011.2 72.533333zM640 128 106.666667 128C93.866667 128 85.333333 136.533333 85.333333 149.333333l0 661.333333 0 106.666667c0 12.8 8.533333 21.333333 21.333333 21.333333l768 0c12.8 0 21.333333-8.533333 21.333333-21.333333L896 640l0-85.333333c0-23.466667 19.2-42.666667 42.666667-42.666667s42.666667 19.2 42.666667 42.666667l0 85.333333 0 170.666667 0 128c0 46.933333-38.4 85.333333-85.333333 85.333333L85.333333 1024c-46.933333 0-85.333333-38.4-85.333333-85.333333l0-128L0 554.666667 0 128c0-46.933333 38.4-85.333333 85.333333-85.333333l554.666667 0c23.466667 0 42.666667 19.2 42.666667 42.666667S663.466667 128 640 128z" p-id="16954"></path></svg>
