<svg t="1569640239520" class="icon" viewBox="0 0 1024 1024" version="1.1" xmlns="http://www.w3.org/2000/svg" p-id="3143" width="200" height="200"><path d="M741.376 757.76c-20.48 12.288-45.056 8.192-61.44-10.24-40.96-47.104-102.4-75.776-167.936-75.776s-126.976 30.72-167.936 75.776c-14.336 18.432-40.96 20.48-61.44 10.24l0 0c-24.576-14.336-30.72-49.152-12.288-71.68 59.392-67.584 145.408-110.592 241.664-110.592 96.256 0 182.272 43.008 241.664 110.592C772.096 708.608 765.952 743.424 741.376 757.76L741.376 757.76zM256 280.576c4.096-16.384 22.528-26.624 38.912-22.528 2.048 0 34.816 8.192 69.632 26.624 36.864 18.432 79.872 49.152 81.92 96.256 0 2.048 0 2.048 0 4.096 0 34.816-28.672 63.488-63.488 63.488-34.816 0-63.488-28.672-63.488-63.488 0-16.384 6.144-32.768 16.384-43.008-18.432-10.24-38.912-16.384-57.344-20.48C262.144 315.392 251.904 296.96 256 280.576L256 280.576zM575.488 380.928c2.048-47.104 45.056-79.872 81.92-96.256 34.816-16.384 69.632-26.624 69.632-26.624 16.384-4.096 34.816 6.144 38.912 22.528 4.096 16.384-6.144 34.816-22.528 38.912-18.432 4.096-38.912 12.288-57.344 20.48 10.24 12.288 16.384 26.624 16.384 43.008 0 34.816-28.672 63.488-63.488 63.488-34.816 0-63.488-28.672-63.488-63.488C575.488 382.976 575.488 380.928 575.488 380.928L575.488 380.928zM512 0C229.376 0 0 229.376 0 512s229.376 512 512 512 512-229.376 512-512S794.624 0 512 0z" p-id="3144"></path></svg>
