<svg t="1567183969131" class="icon" viewBox="0 0 1024 1024" version="1.1" xmlns="http://www.w3.org/2000/svg" p-id="11422" width="200" height="200"><path d="M421.546667 379.733333c36.983467-36.4032 81.3568-54.613333 133.12-54.613333s95.863467 18.210133 132.266666 54.613333c36.983467 36.983467 55.773867 81.3568 56.32 133.12v5.973334c-1.706667 49.476267-20.189867 91.579733-55.466666 126.276266l-0.853334 0.8704c-36.4032 36.4032-80.503467 54.596267-132.266666 54.596267s-96.136533-18.4832-133.12-55.466667c-36.4032-36.4032-54.613333-80.503467-54.613334-132.266666 0-51.7632 18.210133-96.119467 54.613334-133.102934z m133.12-20.48c-42.103467 0-78.216533 14.7968-108.373334 44.373334l-0.853333 0.853333c-29.576533 30.1568-44.373333 66.269867-44.373333 108.373333 0 42.666667 14.7968 78.7968 44.373333 108.3904 30.1568 30.173867 66.56 45.2096 109.226667 45.2096 42.103467 0 78.216533-15.069867 108.373333-45.2096 29.013333-28.996267 44.407467-63.6928 46.08-104.123733v-1.706667-2.56c-0.546133-42.666667-15.9232-79.069867-46.08-109.226666-29.576533-29.576533-65.706667-44.373333-108.373333-44.373334z" p-id="11423"></path><path d="M853.333333 955.733333H256c-65.365333 0-101.7344-35.9936-102.4-101.341866v-0.0512-0.017067V171.52C153.6 104.635733 189.969067 68.266667 256 68.266667h597.333333a17.066667 17.066667 0 0 1 17.066667 17.066666v69.12h68.266667a17.066667 17.066667 0 0 1 17.066666 17.066667v682.666667a17.066667 17.066667 0 0 1-17.066666 17.066666h-68.266667V938.666667a17.066667 17.066667 0 0 1-17.066667 17.066666z m-665.6-101.632C188.228267 900.778667 209.288533 921.6 256 921.6h580.266667V102.4H256c-47.223467 0-68.266667 21.0432-68.266667 68.266667v683.434666z m682.666667-16.981333h51.2V699.733333h-51.2v137.386667zM870.4 665.6h51.2v-136.533333h-51.2v136.533333z m0-170.666667h51.2v-136.533333h-51.2v136.533333z m0-170.666666h51.2v-135.68h-51.2V324.266667z" p-id="11424"></path><path d="M256 888.32H85.333333a34.133333 34.133333 0 0 1 0-68.266667h170.666667a34.133333 34.133333 0 0 1 0 68.266667zM256 716.8H85.333333a34.133333 34.133333 0 0 1 0-68.266667h170.666667a34.133333 34.133333 0 0 1 0 68.266667z m0-170.666667H85.333333a34.133333 34.133333 0 0 1 0-68.266666h170.666667a34.133333 34.133333 0 0 1 0 68.266666z m0-170.666666H85.333333a34.133333 34.133333 0 0 1 0-68.266667h170.666667a34.133333 34.133333 0 0 1 0 68.266667z m0-169.813334H85.333333a34.133333 34.133333 0 0 1 0-68.266666h170.666667a34.133333 34.133333 0 0 1 0 68.266666z" p-id="11425"></path></svg>
