<svg t="1567183658785" class="icon" viewBox="0 0 1024 1024" version="1.1" xmlns="http://www.w3.org/2000/svg" p-id="9353" width="200" height="200"><path d="M174.933333 768 85.333333 341.333333 341.333333 554.666667 512 128 682.666667 554.666667 938.666667 341.333333 849.066667 768ZM512 128m-85.333333 0a2 2 0 1 0 170.666667 0 2 2 0 1 0-170.666667 0ZM938.666667 341.333333m-85.333333 0a2 2 0 1 0 170.666667 0 2 2 0 1 0-170.666667 0ZM85.333333 341.333333m-85.333333 0a2 2 0 1 0 170.666667 0 2 2 0 1 0-170.666667 0ZM170.666667 810.666667l682.666667 0 0 128-682.666667 0 0-128Z" p-id="9354"></path></svg>
