<svg t="1570807414741" class="icon" viewBox="0 0 1024 1024" version="1.1" xmlns="http://www.w3.org/2000/svg" p-id="2045" width="200" height="200"><path d="M441 109.7c-116 0-210 94-210 210s94 210 210 210 210-94 210-210-94-210-210-210z m0 374" fill="" p-id="2046"></path><path d="M753.4 513.1c-110.5 0-200 89.5-200 200s89.5 200 200 200 200-89.5 200-200-89.6-200-200-200z m78.7 229.3h-70c-22.1 0-40-17.9-40-40v-70c0-12.7 10.3-23 23-23s23 10.3 23 23v64h63.4c12.5 0 23.1 9.7 23.5 22.2 0.6 13-9.9 23.8-22.9 23.8z" fill="" p-id="2047"></path><path d="M593.5 549.4c7.6-10.4 3.6-25.1-8.2-30.3-45.2-19.9-95.2-30.9-147.7-30.9-202.7 0-367 164.3-367 367 0 3.9 0.1 7.7 0.2 11.5 0.4 12.4 10.6 22.2 23 22.2 13 0 23.4-10.8 23-23.9-0.1-3.3-0.2-6.6-0.2-9.9 0-177.3 143.7-321 321-321 43.5 0 85.1 8.7 122.9 24.4 11.8 4.9 25.4 1.2 33-9.1zM637.2 146.9c-8.4 0-16.7 0.6-24.8 1.8 53.3 38.1 88.1 100.5 88.1 171s-34.8 132.9-88.1 171c8.1 1.2 16.4 1.8 24.8 1.8 95.4 0 172.8-77.3 172.8-172.8s-77.4-172.8-172.8-172.8z" fill="" p-id="2048"></path></svg>
