<svg t="1567183814573" class="icon" viewBox="0 0 1024 1024" version="1.1" xmlns="http://www.w3.org/2000/svg" p-id="10514" width="200" height="200"><path d="M578.24 959.936c-57.632 0.032-120.16-21.92-176.256-41.6-40.896-14.336-79.552-27.872-109.312-30.816-59.936-5.92-156.8-0.736-157.824-0.704-17.472 1.952-32.736-12.576-33.696-30.208a32 32 0 0 1 30.208-33.664c4.16-0.288 102.72-5.504 167.552 0.896 37.408 3.68 79.552 18.464 124.192 34.112 61.632 21.632 125.312 43.936 174.88 36.64 124.32-18.336 233.664-128.832 257.408-182.976a21.184 21.184 0 0 0 1.44-4.96 57.184 57.184 0 0 0-7.104 1.92c-57.152 18.976-155.456 45.856-232.704 60.416a32 32 0 1 1-11.872-62.88c73.696-13.92 170.624-40.416 224.448-58.272 43.168-14.208 66.144 1.888 76.064 12.736 19.616 21.6 18.336 54.112 8.352 76.8-33.632 76.608-162.176 199.232-306.688 220.544-9.472 1.408-19.2 2.016-29.088 2.016z"   p-id="10515"></path><path d="M539.968 800.992c-14.496 0-29.44-2.912-44.096-8.864-45.344-18.464-125.024-72.352-128.384-74.656a32 32 0 1 1 35.904-52.992c21.408 14.528 84.128 55.136 116.64 68.384 21.984 8.96 38.496 2.08 46.592-7.392 3.232-3.808 10.016-13.92 3.008-25.472-13.504-22.272-54.464-56.416-67.936-67.616C457.824 595.84 419.872 576 345.312 576h-0.992c-93.024 0.192-201.088 93.184-202.144 94.112a32 32 0 1 1-42.048-48.256c5.12-4.48 127.04-109.632 244.064-109.888 94.976 0.352 145.536 27.104 198.432 71.2 43.904 36.608 68.352 61.6 81.696 83.584 19.328 31.744 15.776 71.104-8.992 100.192-18.976 22.272-46.208 34.048-75.36 34.048z"  p-id="10516"></path><path d="M512 236.96m-156 0a156 156 0 1 0 312 0 156 156 0 1 0-312 0Z"  p-id="10517"></path><path d="M512 424.96c-103.648 0-188-84.352-188-188S408.352 48.96 512 48.96s188 84.352 188 188S615.648 424.96 512 424.96z m0-312c-68.384 0-124 55.616-124 124S443.616 360.96 512 360.96s124-55.616 124-124S580.384 112.96 512 112.96zM656.032 608.864a31.968 31.968 0 0 1-26.816-14.496c-16.736-25.664-42.176-42.528-77.76-51.584a32 32 0 0 1 15.808-62.016c51.104 13.024 89.984 39.488 115.488 78.624a32 32 0 0 1-26.72 49.472z"  p-id="10518"></path><path d="M512 424.992c183.552 0 240.32 105.6 251.68 209.536a1417.408 1417.408 0 0 0 55.936-17.088c2.112-0.672 3.936-0.928 6.016-1.504-22.24-162.848-133.632-254.944-313.632-254.944a32 32 0 0 0 0 64z"  p-id="10519"></path><path d="M332.864 480.608c42.304-36.672 101.92-55.584 179.136-55.584a32 32 0 0 0 0-64c-130.88 0-226.72 50.272-277.248 141.984 30.976-12.128 64.32-20.736 98.112-22.4z"  p-id="10520"></path></svg>
