<svg t="1570631996853" class="icon" viewBox="0 0 1024 1024" version="1.1" xmlns="http://www.w3.org/2000/svg" p-id="23569" width="200" height="200"><path d="M599.3 833h201.6v126.6l158.9-168.7-158.9-168.8v126.5H597.7M63.6 391.8V334c5.7-13.8 17.1-18.7 29.3-24.4 134.3-61 268.6-122.1 402.9-184 9.8-4.9 18.7-5.7 29.3-0.8C664.3 187.5 802.7 251 941.8 314.5c11.4 5.7 17.1 14.7 17.9 26.9v41.5c0 17.1-9.8 26-26.9 26H902v153h-86.3v-37.4H208.5v345.9c-13 0-26 0.8-38.3 0-13.8-0.8-26-7.3-35-17.9-9.8-12.2-13-26-13-41.5V407.2c-9 0-17.1-0.8-25.2 0-15.5 3.3-26.9-1.6-33.4-15.4z m216.5 17.9h63.5c6.5 0 9.8-2.4 9.8-9.8V360c0-6.5-3.3-9-9.8-9H217.4c-6.5 0-9.8 2.4-9 9v39.1c0 8.1 3.3 10.6 10.6 10.6h61.1z m461.5 0h63.5c7.3 0 10.6-2.4 10.6-9.8v-39.1c0-7.3-3.3-9.8-9.8-9.8H680.6c-7.3 0-9.8 3.3-9.8 10.6v36.6c0 8.1 3.3 11.4 11.4 11.4l59.4 0.1z m-229.5 0H574c6.5 0 9.8-2.4 9.8-9.8V360c0-6.5-2.4-9-9-9H448.6c-7.3 0-9.8 3.3-9.8 9.8v38.3c0 7.3 2.4 10.6 10.6 10.6h62.7z" p-id="23570"></path><path d="M259.9 588.6H542v282.1H259.9z" p-id="23571"></path></svg>
