<svg t="1568437023047" class="icon" viewBox="0 0 1024 1024" version="1.1" xmlns="http://www.w3.org/2000/svg" p-id="1984" width="200" height="200"><path d="M236.3 686.1h-68.8V479.8h309.6V342.2h68.8v137.6h309.6v206.4h-68.8V548.6H545.9v137.6h-68.8V548.6H236.3v137.5z m275.2-412.7c56.8 0 103.2-46.4 103.2-103.2S568.2 67 511.5 67s-103.2 46.4-103.2 103.2 46.4 103.2 103.2 103.2z m0 481.5c-56.8 0-103.2 46.4-103.2 103.2s46.4 103.2 103.2 103.2 103.2-46.4 103.2-103.2-46.5-103.2-103.2-103.2z m-309.6 0c-56.8 0-103.2 46.4-103.2 103.2s46.4 103.2 103.2 103.2 103.2-46.4 103.2-103.2-46.4-103.2-103.2-103.2z m619.2 0c-56.8 0-103.2 46.4-103.2 103.2s46.4 103.2 103.2 103.2c56.8 0 103.2-46.4 103.2-103.2s-46.5-103.2-103.2-103.2z" p-id="1985"></path></svg>
