<svg t="1569640550210" class="icon" viewBox="0 0 1024 1024" version="1.1" xmlns="http://www.w3.org/2000/svg" p-id="6785" width="200" height="200"><path d="M466.944 626.944c0 24.832 20.224 45.056 45.568 45.056 25.088 0 45.568-20.224 45.568-45.056 0-24.832-20.224-45.056-45.568-45.056-25.088 0-45.568 20.224-45.568 45.056z m0 0" p-id="6786"></path><path d="M942.08 76.544h-165.888c-25.088 0-45.568 20.224-45.568 45.056 0 24.832 20.224 45.056 45.568 45.056h109.056c25.088 0 45.568 20.224 45.568 45.056V680.96c0 24.832-20.224 45.056-45.568 45.056H668.16c-20.992 0-41.216 8.192-56.32 23.04l-99.328 98.56-31.744-30.976-67.584-67.072c-14.848-14.848-35.072-23.04-56.32-23.04H139.776c-25.088 0-45.568-20.224-45.568-45.056V211.968c0-24.832 20.224-45.056 45.568-45.056h109.056c25.088 0 45.568-20.224 45.568-45.056 0-24.832-20.224-45.056-45.568-45.056H82.944C38.912 76.8 3.328 112.128 3.328 155.648v582.144c0 43.52 35.584 78.848 79.616 78.848h269.312l128 127.232c17.664 17.664 46.592 17.664 64.256 0l128-127.232H942.08c44.032 0 79.616-35.328 79.616-78.848V155.392c-0.256-43.52-35.84-78.848-79.616-78.848z m0 0" p-id="6787"></path><path d="M512.512 509.696c25.088 0 45.568-20.224 45.568-45.056v-343.04c0-24.832-20.224-45.056-45.568-45.056-25.088 0-45.568 20.224-45.568 45.056v343.04c0 24.832 20.48 45.056 45.568 45.056z m0 0" p-id="6788"></path></svg>
