<svg t="1568437228041" class="icon" viewBox="0 0 1024 1024" version="1.1" xmlns="http://www.w3.org/2000/svg" p-id="7378" width="200" height="200"><path d="M348.608 563.104l0-47.68c0 0-172.512 9.12-182.656-164.384 0 0-8.128-174.56 173.536-186.72l2.048-47.68c0 0-211.072-4.064-225.28 221.216 0 0-8.128 123.808 106.048 195.84 0 0-234.912 57.856-221.728 338.912l48.704 0C49.248 872.64 11.68 576.32 348.608 563.104z" p-id="7379"></path><path d="M819.456 159.264c0 0-102.048-148.32-290.208-90.304 0 0-156.256 51.744-175.552 216.16 0 0-27.392 150.56 121.76 254.88 0 0-276.032 99.264-276.032 417.888l46.688 0c0 0-9.6-285.152 291.008-393.728 0 0 155.52 58.848 282.336-90.304C819.456 473.824 940.224 328.704 819.456 159.264zM613.056 529.12c-117.664 0-213.088-95.392-213.088-213.088 0-117.664 95.424-213.088 213.088-213.088s213.088 95.424 213.088 213.088C826.144 433.696 730.72 529.12 613.056 529.12z" p-id="7380"></path><path d="M882.88 626.784l-28.16 40.32c138.528 121.76 115.68 301.376 115.68 301.376l50.24 0C1032.8 737.152 882.88 626.784 882.88 626.784z" p-id="7381"></path></svg>
