<?xml version="1.0" standalone="no"?><!DOCTYPE svg PUBLIC "-//W3C//DTD SVG 1.1//EN" "http://www.w3.org/Graphics/SVG/1.1/DTD/svg11.dtd"><svg t="1587693967655" class="icon" viewBox="0 0 1024 1024" version="1.1" xmlns="http://www.w3.org/2000/svg" p-id="1952" xmlns:xlink="http://www.w3.org/1999/xlink" width="200" height="200"><defs><style type="text/css"></style></defs><path d="M987.428571 109.714286H36.571429c-20.228571 0-36.571429 16.342857-36.571429 36.571428v731.428572c0 20.228571 16.342857 36.571429 36.571429 36.571428h950.857142c20.228571 0 36.571429-16.342857 36.571429-36.571428V146.285714c0-20.228571-16.342857-36.571429-36.571429-36.571428z m-45.714285 237.714285H699.428571V192h242.285715v155.428571z m0 256H699.428571V420.571429h242.285715v182.857142zM397.714286 420.571429h228.571428v182.857142H397.714286V420.571429z m228.571428-73.142858H397.714286V192h228.571428v155.428571z m-544 73.142858h242.285715v182.857142H82.285714V420.571429z m0-228.571429h242.285715v155.428571H82.285714V192z m0 484.571429h242.285715v155.428571H82.285714V676.571429z m315.428572 0h228.571428v155.428571H397.714286V676.571429z m544 155.428571H699.428571V676.571429h242.285715v155.428571z" p-id="1953" fill="#ffffff"></path></svg>