<svg t="1584506677878" class="icon" viewBox="0 0 1024 1024" version="1.1" xmlns="http://www.w3.org/2000/svg" p-id="1042" width="200" height="200"><path d="M289.588922 39.493562c-87.580676 45.381366-85.989648 170.393971 3.193461 213.391646 78.821468 38.218889 158.447004-3.980421 175.167055-93.163531 6.369815-33.440102-20.700472-93.157828-52.549547-116.247694-33.440102-23.888231-84.39862-25.479259-125.805267-3.980421z" p-id="1043"></path><path d="M668.601454 140.617936c-7.162477 35.829495-73.250018 138.544897-111.468907 173.576026-62.10712 57.328333-148.10247 97.936615-233.299456 109.090919-51.756883 7.162477-159.251072-6.375517-235.688849-30.263748C53.900073 381.878234 26.037123 376.306784 26.037123 379.48884c0 15.129023 65.294878 66.087541 116.253396 91.566801 69.269597 34.238467 130.584054 50.160153 216.573702 57.328332 35.835198 3.187759 65.294878 6.369815 65.294879 7.960843 0 1.596731-11.148601 18.316782-23.888232 38.218889-65.294878 96.345587-91.5668 203.047112-85.99535 343.183037 2.395096 57.328333 8.759208 96.345587 16.720051 111.474609l11.946967 23.888232 7.960842-31.849074c3.980421-17.518416 13.537995-58.925064 20.700473-93.163531 23.095568-104.30643 84.39862-215.781039 153.679622-279.484889 83.600255-77.23044 169.595605-119.42975 265.941192-131.376717 57.328333-7.162477 172.789067-1.591028 200.652016 10.350236 23.095568 9.557573 15.129023-9.551871-12.739629-31.050708-66.087541-50.165855-179.153179-84.39862-281.86858-84.39862-31.849074 0-58.126698-2.395096-58.126699-4.778787 0-3.187759 8.759208-29.465383 19.109445-58.925064 11.148601-29.45968 23.893934-76.437777 28.667017-103.508064 13.537995-74.054086-4.778787-174.380095-18.316781-104.312132z" p-id="1044"></path></svg>
