<svg t="1567863344967" class="icon" viewBox="0 0 1024 1024" version="1.1" xmlns="http://www.w3.org/2000/svg" p-id="3982" width="200" height="200"><path d="M539.306667 528.896m-138.069334 0a138.069333 138.069333 0 1 0 276.138667 0 138.069333 138.069333 0 1 0-276.138667 0Z" p-id="3983"></path><path d="M539.306667 701.098667A172.202667 172.202667 0 1 1 711.509333 529.066667 172.373333 172.373333 0 0 1 539.306667 701.098667z m0-276.138667a103.936 103.936 0 1 0 103.936 104.106667 104.106667 104.106667 0 0 0-103.936-104.106667z" p-id="3984"></path><path d="M787.797333 280.405333l-165.717333 184.149334" p-id="3985"></path><path d="M622.08 498.688A34.133333 34.133333 0 0 1 597.333333 441.685333l165.034667-183.978666a34.133333 34.133333 0 0 1 51.2 45.568l-165.546667 184.149333a34.133333 34.133333 0 0 1-25.941333 11.264z" p-id="3986"></path><path d="M805.205333 826.197333L622.08 611.84" p-id="3987"></path><path d="M805.205333 860.330667a34.133333 34.133333 0 0 1-26.112-11.946667L596.138667 633.856a34.133333 34.133333 0 1 1 51.2-44.202667L831.146667 804.181333a34.133333 34.133333 0 0 1-3.925334 48.128 34.133333 34.133333 0 0 1-22.016 8.021334z" p-id="3988"></path><path d="M446.464 630.954667l-137.216 146.432" p-id="3989"></path><path d="M309.248 811.52a34.133333 34.133333 0 0 1-24.917333-57.514667l136.533333-146.432a34.133333 34.133333 0 0 1 49.834667 46.592l-136.533334 146.602667a34.133333 34.133333 0 0 1-24.917333 10.752z" p-id="3990"></path><path d="M420.864 528.896l-166.912-45.909333" p-id="3991"></path><path d="M420.864 563.2a32.085333 32.085333 0 0 1-9.045333-1.194667l-166.912-46.08a34.133333 34.133333 0 1 1 18.090666-65.706666l166.912 45.909333a34.133333 34.133333 0 0 1-9.045333 67.072z" p-id="3992"></path><path d="M511.658667 446.122667L382.805333 225.28" p-id="3993"></path><path d="M512 480.256a34.133333 34.133333 0 0 1-29.525333-17.066667L353.28 242.517333a34.133333 34.133333 0 0 1 59.050667-34.133333l128.853333 220.842667a34.133333 34.133333 0 0 1-12.117333 46.421333 35.328 35.328 0 0 1-17.066667 4.608zM852.138667 332.970667a116.906667 116.906667 0 1 1 116.906666-116.906667 116.906667 116.906667 0 0 1-116.906666 116.906667z m0-165.546667a48.64 48.64 0 1 0 48.64 48.64 48.810667 48.810667 0 0 0-48.64-48.64z" p-id="3994"></path><path d="M318.464 240.981333a117.077333 117.077333 0 1 1 116.906667-116.906666 117.077333 117.077333 0 0 1-116.906667 116.906666z m0-165.717333a48.810667 48.810667 0 1 0 48.64 48.810667 48.810667 48.810667 0 0 0-48.64-48.810667zM170.666667 572.245333a116.906667 116.906667 0 1 1 116.394666-129.706666 117.077333 117.077333 0 0 1-103.424 129.024 111.957333 111.957333 0 0 1-12.970666 0.682666z m0-165.546666h-4.778667a50.005333 50.005333 0 1 0 5.290667 0zM244.736 958.805333a117.077333 117.077333 0 1 1 117.077333-116.906666 117.077333 117.077333 0 0 1-117.077333 116.906666z m0-165.717333a48.810667 48.810667 0 1 0 48.810667 48.810667 48.810667 48.810667 0 0 0-48.810667-48.810667zM870.4 1013.930667a116.906667 116.906667 0 1 1 116.906667-116.906667A116.906667 116.906667 0 0 1 870.4 1013.930667z m0-165.546667a48.64 48.64 0 1 0 48.64 48.64A48.810667 48.810667 0 0 0 870.4 848.384z" p-id="3995"></path></svg>
