<svg t="1567184099331" class="icon" viewBox="0 0 1029 1024" version="1.1" xmlns="http://www.w3.org/2000/svg" p-id="12585" width="200" height="200"><path d="M859.022222 5.688889L170.666667 0C73.955556 0 0 73.955556 0 170.666667v682.666666c0 96.711111 73.955556 170.666667 170.666667 170.666667h170.666666v-113.777778H170.666667c-34.133333 0-56.888889-22.755556-56.888889-56.888889V170.666667c0-34.133333 22.755556-56.888889 56.888889-56.888889l688.355555 5.688889c34.133333 0 51.2 28.444444 51.2 56.888889v170.666666h113.777778v-170.666666c0-96.711111-73.955556-170.666667-164.977778-170.666667z" p-id="12586"></path><path d="M864.711111 745.244444c0-5.688889 0-5.688889 0 0 28.444444-51.2 45.511111-113.777778 45.511111-176.355555 0-187.733333-153.6-341.333333-341.333333-341.333333s-341.333333 153.6-341.333333 341.333333 153.6 341.333333 341.333333 341.333333c85.333333 0 159.288889-28.444444 221.866667-79.644444l96.711111 102.4c11.377778 11.377778 28.444444 17.066667 39.822222 17.066666 11.377778 0 28.444444-5.688889 39.822222-17.066666 22.755556-22.755556 22.755556-56.888889 0-79.644445l-102.4-108.088889zM568.888889 796.444444c-125.155556 0-227.555556-102.4-227.555556-227.555555s102.4-227.555556 227.555556-227.555556 227.555556 102.4 227.555555 227.555556-102.4 227.555556-227.555555 227.555555z" p-id="12587"></path></svg>
