<svg t="1570807151141" class="icon" viewBox="0 0 1024 1024" version="1.1" xmlns="http://www.w3.org/2000/svg" p-id="1903" width="200" height="200"><path d="M982.388693 1024H729.102473v-72.367491H910.021201V425.520848L512 94.077739 113.978799 425.520848v200.457951H41.611307V392.231802L512 0 982.388693 392.231802v631.768198z" p-id="1904"></path><path d="M294.897527 408.876325h434.204946v72.367491h-434.204946zM370.159717 1013.144876h-144.734982v-50.657243h144.734982c11.578799 0 116.511661 0 116.511661-93.354064s-111.445936-93.354064-116.511661-93.354064H158.122968V723.674912h212.036749a152.695406 152.695406 0 0 1 167.168905 144.734982 152.695406 152.695406 0 0 1-167.168905 144.734982z" p-id="1905"></path><path d="M218.187986 860.44947L71.281979 751.174558l146.906007-109.274911 30.394346 40.525795-91.906714 68.749116 91.906714 68.025442-30.394346 41.24947z" p-id="1906"></path></svg>
