<svg t="1570631860319" class="icon" viewBox="0 0 1024 1024" version="1.1" xmlns="http://www.w3.org/2000/svg" p-id="19975" width="200" height="200"><path d="M759.2 833.6v-75.8H152.6v75.8H76.8V960H835V833.6h-75.8z m25.3 75.9H127.4v-25.3h75.8v-75.8h505.5v75.8h75.8v25.3zM947.2 546L640.7 369.1l99.5-172.4L510.4 64l-25.3 43.8-74.2 128.6-76.6-44.2L268 307.1l76.6 44.2-99.5 172.4 229.8 132.7L574.4 484l262.7 151.6 1 0.6 42.8 24.8 40.3-69.9 26-45.1zM337 288.6l15.8-27.4 32.8 19-15.8 27.4-32.8-19z m119.4 298.7l-142.3-82.1 214.8-372.1 142.3 82.1L597 343.8l-33.2 57.5-107.4 186z m151.2-160.8l7.9-13.7 262.7 151.6-15.8 27.4-262.7-151.6 7.9-13.7z" p-id="19976"></path></svg>
