<svg t="1567821771593" class="icon" viewBox="0 0 1024 1024" version="1.1" xmlns="http://www.w3.org/2000/svg" p-id="3350" width="200" height="200"><path d="M874.04 149.96C777.344 53.266 648.78 0.008 512.04 0h-0.086C392.64 0.008 276.484 41.954 184.88 118.11a15.004 15.004 0 0 0 19.18 23.07c65.47-54.438 144.266-90.298 227.58-104.414l-120.11 57.382c-0.072 0.04-0.15 0.08-0.228 0.118-0.022 0.008-0.04 0.024-0.07 0.03-0.274 0.14-0.546 0.29-0.82 0.446 0 0.008-0.008 0.008-0.008 0.008a15.014 15.014 0 0 0-7.406 13.274v183.92l-60.836 28.978c-94.024 25.094-164.532 62.062-204.554 105.414 16.21-90.266 57.914-174.29 121.366-242.516 5.64-6.062 5.298-15.554-0.766-21.202a15.002 15.002 0 0 0-21.202 0.772C48.656 258.382 0 382.196 0 512c0 136.696 53.22 265.234 149.844 361.92S374.96 1023.908 511.656 1024H512c136.758 0 265.336-53.258 362.04-149.96C970.74 777.336 1024 648.758 1024 512s-53.258-265.336-149.96-362.04zM165 405.196l332 158.148v142.562c-125.164-1.562-242.07-22.71-330.618-59.946l-1.382-0.586z m362 330.71c124.368-1.524 241.25-21.976 332-58.1v149.288l-332 158.148z m303.274 138.1c-67.828 59.8-149.814 98.69-238.04 113.384z m27.344-228.046c-88.548 37.236-205.454 58.384-330.618 59.946v-142.562l332-158.148v240.18l-1.382 0.584zM889 392.626C955.618 426.71 994 469 994 512c0 42.46-37.82 85.04-105 119.406z m97.438 33.578c-8.954-9.72-19.46-19.134-31.478-28.15-41.492-31.172-100.88-57.71-171.734-76.758a12.92 12.92 0 0 0-1.156-0.264L721 291.946v-3.46c0-8.282-6.71-15-15-15s-15 6.718-15 15v54.374l-164 78.35v-211.38l164-78.354v91.892c0 8.28 6.71 15 15 15s15-6.72 15-15V108.016c0.204-9.57-8.032-13.712-7.836-13.508-0.648-0.352 5.844 2.774-121.258-57.954 98.368 16.314 189 62.704 260.922 134.626 70.476 70.468 116.438 158.93 133.61 255.024zM333 342.86V131.476l164 78.352v211.382zM512 183.74l-159.204-76.054L512 31.626l159.204 76.06z m-200.468 182.11l193.844 92.608a0.112 0.112 0 0 0 0.046 0.016 14.988 14.988 0 0 0 13.046 0.056l194-92.68a15.008 15.008 0 0 0 8.532-13.54v-27.14l118.126 56.266L512 537.266 184.882 381.438l118.118-56.266v27.14c0 5.78 3.32 11.048 8.532 13.54zM135 392.6v238.804C67.82 597.04 30 554.46 30 512c0-43.07 38.36-85.336 105-119.4z m0 272.226v38.726c0 8.282 6.71 15 15 15s15-6.718 15-15v-25.75c90.75 36.126 207.632 56.58 332 58.102v249.336l-332-158.148v-58.798c0-8.28-6.71-15-15-15s-15 6.72-15 15v44.134c-50.126-62.656-83.376-136.048-97.414-214.532 22.766 24.618 55.54 47.25 97.414 66.93z m296.758 322.562c-88.22-14.694-170.212-53.594-238.032-113.382z m457.242-174.96v-147.6c41.876-19.69 74.656-42.314 97.414-66.94-14.04 78.492-47.288 151.884-97.414 214.54z m0 0" p-id="3351"></path></svg>
