<svg t="1571062526727" class="icon" viewBox="0 0 1024 1024" version="1.1" xmlns="http://www.w3.org/2000/svg" p-id="2480" width="200" height="200"><path d="M880.64 977.92H143.36c-51.2 0-92.16-40.96-92.16-92.16V153.6c0-51.2 40.96-92.16 92.16-92.16h737.28c51.2 0 92.16 40.96 92.16 92.16v737.28c0 46.08-40.96 87.04-92.16 87.04zM143.36 138.24c-5.12 0-15.36 5.12-15.36 15.36v737.28c0 5.12 5.12 15.36 15.36 15.36h737.28c5.12 0 15.36-5.12 15.36-15.36V153.6c0-5.12-5.12-15.36-15.36-15.36H143.36z" p-id="2481"></path><path d="M742.4 276.48H276.48c-20.48 0-40.96-20.48-40.96-40.96V102.4c0-20.48 15.36-40.96 40.96-40.96h465.92c20.48 0 40.96 15.36 40.96 40.96v133.12c0 20.48-20.48 40.96-40.96 40.96zM312.32 199.68h389.12V143.36H312.32v56.32zM599.04 558.08h51.2v76.8h-51.2v-76.8z m92.16 0h51.2v76.8h-51.2v-76.8z" p-id="2482"></path><path d="M706.56 798.72c-107.52 0-199.68-87.04-199.68-199.68 0-107.52 87.04-199.68 199.68-199.68 107.52 0 199.68 87.04 199.68 199.68 0 107.52-92.16 199.68-199.68 199.68z m0-348.16c-81.92 0-148.48 66.56-148.48 148.48 0 81.92 66.56 148.48 148.48 148.48 81.92 0 148.48-66.56 148.48-148.48 0-81.92-66.56-148.48-148.48-148.48z" p-id="2483"></path><path d="M855.04 947.2c-5.12 0-15.36 0-20.48-5.12l-133.12-133.12-133.12 133.12c-10.24 10.24-25.6 10.24-35.84 0-10.24-10.24-10.24-25.6 0-35.84l148.48-148.48c5.12-5.12 10.24-5.12 20.48-5.12 5.12 0 15.36 5.12 20.48 5.12l148.48 148.48c10.24 10.24 10.24 25.6 0 35.84 0 0-10.24 5.12-15.36 5.12zM578.56 419.84H215.04c-20.48 0-40.96-15.36-40.96-40.96s15.36-40.96 40.96-40.96h363.52c20.48 5.12 35.84 20.48 35.84 40.96s-15.36 40.96-35.84 40.96zM460.8 578.56H215.04c-20.48 0-40.96-15.36-40.96-40.96s15.36-40.96 40.96-40.96H460.8c20.48 0 40.96 15.36 40.96 40.96s-15.36 40.96-40.96 40.96zM389.12 742.4H215.04c-20.48 0-40.96-15.36-40.96-40.96s20.48-35.84 40.96-35.84h174.08c20.48 0 40.96 15.36 40.96 40.96s-20.48 35.84-40.96 35.84z" p-id="2484"></path></svg>
