<svg t="1570882646383" class="icon" viewBox="0 0 1024 1024" version="1.1" xmlns="http://www.w3.org/2000/svg" p-id="8280" width="200" height="200"><path d="M299.33847709 568.57860957v32.16534517c0 17.23969977 14.11572742 31.23972305 31.35542718 31.23972307h132.47956487v130.51262085c0 8.33059282 3.23967423 16.19837566 9.14051301 22.09921004 5.90083658 5.90083658 13.76861938 9.14051084 22.09921005 9.14051303H527.04134742c17.23969977 0 31.47112915-14.00002333 31.93393915-31.12402113v-130.62832279h131.90105294c17.23969977 0 31.23972305-14.11572742 31.23972306-31.3554272v-32.165343c0-8.33059282-3.23967423-16.19837566-9.14051085-22.09921226-5.78513462-5.78513462-13.88432135-9.14051084-22.09921221-9.14051081h-131.90105294v-130.7440269c-0.46280997-17.47110368-14.46283549-31.12402111-31.93393915-31.1240211h-32.5124511c-17.23969977 0-31.23972305 14.11572742-31.23972308 31.35542719v130.51262081H330.69390427c-8.33059282 0-16.19837566 3.23967423-22.09921223 9.14051081-6.01653852 6.01653852-9.25621497 13.88432135-9.25621495 22.21491422z" p-id="8281"></path><path d="M807.38893699 125.20594809v-0.8099202h-90.01668278v-28.57856078c-0.46280997-35.75212751-29.61988485-64.56209435-65.2563104-64.56209429H369.45429994c-16.89259171 0-33.55377734 6.82645873-45.58685439 18.74383386-12.14878118 12.0330792-19.09094189 28.80996682-19.20664384 45.93396243V124.39602789H220.42925138c-32.39674912 0-63.05796023 12.49588925-86.19849444 35.28931753-23.48764436 23.02483219-36.56204557 53.80174529-36.79345157 86.77700849v624.6787594c0.23140608 32.85956129 13.30580725 63.63647218 36.79345157 86.6613044 23.14053631 22.7934283 53.80174529 35.28931754 86.19849444 35.28931752H800.79388435c67.33895861 0 122.41343409-54.61166332 122.87624407-122.06632605V247.04086805c-0.34710803-65.2563104-51.95050316-118.47954157-116.28119143-121.83491996zM651.5374297 257.33840494h0.46280996c17.93391581 0 34.71080341-6.94216069 47.43809874-19.55375185 11.45456514-11.33886318 18.51242775-26.61161667 19.78515794-42.57858623h81.57038801c28.46285881 0 51.60339511 23.02483219 51.71909706 51.48769314v623.8688392c-0.11570195 28.46285881-23.37194023 51.48769099-51.71909706 51.48769099H221.58627745c-13.65291525 0.23140608-27.19012863-5.2066205-37.02485551-14.80994136s-15.50415959-23.02483219-15.50415959-36.67774963V246.69376c0.11570195-13.76861938 5.78513462-27.07442665 15.50415959-36.67774964 9.60332302-9.48761887 22.7934283-14.80994351 36.44634355-14.8099435h81.33898192c1.27273018 15.96696959 8.33059282 31.23972305 19.78515796 42.57858623 12.61159116 12.49588925 30.08269702 19.66945598 47.90090868 19.55375185h281.50461565z m-278.03353528-70.92574092v-89.3224667h274.44675299v89.3224667H373.50389442z" p-id="8282"></path></svg>
