<?xml version="1.0" standalone="no"?><!DOCTYPE svg PUBLIC "-//W3C//DTD SVG 1.1//EN" "http://www.w3.org/Graphics/SVG/1.1/DTD/svg11.dtd"><svg t="1573370097931" class="icon" viewBox="0 0 1088 1024" version="1.1" xmlns="http://www.w3.org/2000/svg" p-id="2366" xmlns:xlink="http://www.w3.org/1999/xlink" width="212.5" height="200"><defs><style type="text/css"></style></defs><path d="M43.392 384.064h354.56A448.832 448.832 0 0 1 481.984 302.72H43.392c-24 0-43.392 18.304-43.392 40.768C0 365.824 19.392 384 43.392 384z m0 270.72h264.064a408.96 408.96 0 0 1 10.688-81.408H43.392c-24 0-43.392 18.176-43.392 40.704 0 22.464 19.392 40.64 43.392 40.64z m0-541.44h927.104c23.936 0 43.392-18.24 43.392-40.64 0-22.528-19.456-40.704-43.392-40.704H43.392C19.392 32 0 50.176 0 72.704c0 22.4 19.392 40.64 43.392 40.64z m0 730.688c-24 0-43.392 18.24-43.392 40.64 0 22.464 19.392 40.768 43.392 40.768H378.88a419.328 419.328 0 0 1-43.008-81.408H43.392z m682.944-530.304c-199.36 0-361.6 152.192-361.6 339.2 0 186.944 162.24 339.072 361.6 339.072 199.424 0 361.664-152.128 361.664-339.136 0-186.88-162.24-339.136-361.664-339.136z m0 596.928c-151.488 0-274.88-115.712-274.88-257.792 0-142.08 123.392-257.728 274.88-257.728 151.616 0 274.88 115.648 274.88 257.728s-123.264 257.792-274.88 257.792z m95.488-265.088h-83.84V537.024c0-22.528-19.52-40.64-43.52-40.64-23.936 0-43.392 18.112-43.392 40.64v149.248c0 22.4 19.456 40.704 43.392 40.704h127.36c23.872 0 43.328-18.304 43.328-40.704 0-22.528-19.328-40.704-43.328-40.704z" p-id="2367"></path></svg>