<?xml version="1.0" standalone="no"?><!DOCTYPE svg PUBLIC "-//W3C//DTD SVG 1.1//EN" "http://www.w3.org/Graphics/SVG/1.1/DTD/svg11.dtd"><svg t="1576997950667" class="icon" viewBox="0 0 1024 1024" version="1.1" xmlns="http://www.w3.org/2000/svg" p-id="1438" xmlns:xlink="http://www.w3.org/1999/xlink" width="200" height="200"><defs><style type="text/css"></style></defs><path d="M290.323 199.251c38.055 0 68.899-30.553 68.899-68.25V73.157c0-37.697-30.849-68.252-68.899-68.252-38.054 0-68.909 30.555-68.909 68.252v57.785c0.001 37.698 30.855 68.309 68.909 68.309z m463.641 0c38.051 0 68.904-30.553 68.904-68.25V73.157c0-37.697-30.854-68.252-68.904-68.252-38.055 0-68.908 30.555-68.908 68.252v57.785c0 37.698 30.853 68.309 68.908 68.309z" fill="" p-id="1439"></path><path d="M921.581 99.721h-61.514v29.921c0 57.434-47.021 117.922-105.005 117.922-57.989 0-105.01-60.488-105.01-117.922V99.721h-253.63v29.921c0 57.434-47.017 117.922-105.006 117.922s-104.999-55.73-104.999-113.135v-33.107l-79.64-1.601c-38.655 0-70.021 31.038-70.021 69.335v780.705c0 38.297 31.337 69.334 70.021 69.334h814.8c38.669 0 70.021-31.037 70.021-69.334V164.312c-0.005-38.297-31.348-64.591-70.017-64.591z m9.275 858.827H99.639v-656.41h831.218l-0.001 656.41z" fill="" p-id="1440"></path><path d="M762.902 375.839h-485.56c-17.652 0-31.986 13.632-31.986 30.417v84.049c0 16.789 14.334 30.419 31.986 30.419h485.557c17.656 0 32.027-13.63 32.027-30.419v-84.049c0-16.785-14.371-30.417-32.024-30.417z m-7.968 106.857H621.49v-68.824h133.449v68.824h-0.005z m7.968 81.633h-485.56c-17.652 0-31.986 13.63-31.986 30.416v84.056c0 16.783 14.334 30.45 31.986 30.45h485.557c17.656 0 32.027-13.667 32.027-30.45v-84.056c0-16.786-14.371-30.416-32.024-30.416z m-7.968 106.889H462.496v-68.856h292.438v68.856z m7.968 81.636h-485.56c-17.652 0-31.986 13.63-31.986 30.421v84.048c0 16.788 14.334 30.417 31.986 30.417h485.557c17.656 0 32.027-13.629 32.027-30.417v-84.048c0-16.792-14.371-30.421-32.024-30.421z m-7.968 106.856h-203.4v-68.823h203.4v68.823z" fill="" p-id="1441"></path></svg>