<?xml version="1.0" standalone="no"?><!DOCTYPE svg PUBLIC "-//W3C//DTD SVG 1.1//EN" "http://www.w3.org/Graphics/SVG/1.1/DTD/svg11.dtd"><svg t="1573370094968" class="icon" viewBox="0 0 1024 1024" version="1.1" xmlns="http://www.w3.org/2000/svg" p-id="2240" xmlns:xlink="http://www.w3.org/1999/xlink" width="200" height="200"><defs><style type="text/css"></style></defs><path d="M233.865846 454.892308c-13.863385 0-27.805538-14.178462-27.805538-28.356923 0-14.257231 13.942154-28.514462 27.805538-28.514462h500.027077c13.942154 0 27.805538 14.178462 27.805539 28.435692 0 14.178462-13.863385 28.435692-27.805539 28.435693H233.944615z m2.756923 170.614154c-16.620308 0-30.562462-14.178462-30.562461-28.435693 0-17.092923 13.942154-28.356923 30.562461-28.356923h158.326154c16.699077 0 30.641231 11.264 30.641231 28.356923 0 14.178462-13.942154 28.435692-30.562462 28.435693h-158.326154z m0 170.614153c-16.620308 0-30.562462-14.178462-30.562461-28.435692 0-17.092923 13.942154-28.435692 30.562461-28.435692h158.326154c16.699077 0 30.641231 11.342769 30.641231 28.356923 0 14.257231-13.942154 28.514462-30.562462 28.514461h-158.326154zM233.944615 284.356923c-13.863385 0-27.805538-14.178462-27.805538-28.435692 0-14.178462 13.942154-28.435692 27.805538-28.435693h500.027077c13.942154 0 27.805538 14.178462 27.805539 28.356924 0 14.257231-13.863385 28.514462-27.805539 28.514461H233.944615zM900.647385 0c13.863385 0 27.726769 14.178462 27.726769 28.435692v454.892308c0 17.092923-11.027692 28.435692-27.726769 28.435692-16.699077 0-27.805538-11.342769-27.805539-28.356923V56.792615H94.916923v909.784616h388.962462c16.699077 0 27.805538 11.421538 27.805538 28.435692 0 17.092923-11.106462 28.435692-27.805538 28.435692H67.190154c-13.942154 0-27.805538-14.178462-27.805539-28.356923V28.356923C39.384615 14.257231 53.248 0 67.190154 0h833.378461zM761.698462 625.506462c-91.687385 0-166.675692 76.8-166.675693 170.614153 0 93.735385 74.988308 170.535385 166.675693 170.535385 91.687385 0 166.675692-76.721231 166.675692-170.535385S853.385846 625.427692 761.698462 625.427692z m0-56.871385c122.249846 0 222.286769 102.4 222.286769 227.485538 0 125.085538-100.036923 227.406769-222.286769 227.40677s-222.208-102.4-222.208-227.40677c0-125.085538 100.036923-227.485538 222.208-227.485538z m11.106461 125.085538l22.212923 48.364308c2.835692 2.835692 5.513846 5.671385 8.349539 5.671385l50.018461 5.671384c8.349538 0 13.863385 14.178462 5.513846 19.928616l-38.83323 34.107077c-2.756923 2.835692-2.756923 5.671385-2.756924 11.342769l11.027693 51.2c2.835692 8.507077-8.270769 17.092923-16.620308 11.421538l-44.425846-25.6a8.270769 8.270769 0 0 0-11.106462 0l-44.504615 25.6c-8.349538 5.671385-16.620308-2.914462-16.620308-11.421538l11.027693-51.2c0-2.835692 0-8.507077-2.756923-11.342769l-38.833231-34.107077c-8.349538-5.671385-2.835692-17.092923 5.513846-19.928616l50.018461-5.671384c2.756923 0 8.349538-2.835692 8.349539-5.671385l22.212923-48.364308a12.839385 12.839385 0 0 1 22.212923 0z" fill="#333333" p-id="2241"></path></svg>