<svg t="1567954887262" class="icon" viewBox="0 0 1180 1024" version="1.1" xmlns="http://www.w3.org/2000/svg" p-id="1992" width="200" height="200"><path d="M668.625432 0.136157H511.300478c-65.160457 0-117.990592 52.840129-117.990592 117.995589 0 65.160457 52.830136 117.985596 117.990592 117.985596h157.326203c65.160457 0 117.995589-52.825139 117.995589-117.985596C786.621021 52.976286 733.787138 0.136157 668.625432 0.136157z m0 157.32995H511.300478c-21.698917-0.068703-39.269406-17.639192-39.333112-39.334361 0.063706-21.69392 17.634195-39.264409 39.333112-39.333112h157.326203c21.698917 0.068703 39.268157 17.639192 39.333112 39.333112-0.066205 21.695169-17.634195 39.265658-39.334361 39.334361z m0 235.981185H511.300478c-65.160457 0-117.990592 52.83888-117.990592 117.995589 0 65.160457 52.830136 117.990592 117.990592 117.990592h157.326203c65.160457 0 117.995589-52.830136 117.995589-117.990592-0.001249-65.156709-52.835132-117.995589-117.996838-117.995589z m0 157.328701H511.300478c-21.698917-0.063706-39.269406-17.634195-39.333112-39.333112 0.063706-21.695169 17.634195-39.265658 39.333112-39.329365h157.326203c21.698917 0.063706 39.268157 17.634195 39.333112 39.329365-0.066205 21.698917-17.634195 39.269406-39.334361 39.333112z m0 235.981185H511.300478c-65.160457 0-117.990592 52.840129-117.990592 117.995589 0 65.160457 52.830136 118.000586 117.990592 118.000585h157.326203c65.160457 0 117.995589-52.840129 117.995589-118.000585-0.001249-65.15546-52.835132-117.995589-117.996838-117.995589z m0 157.328701H511.300478c-21.698917-0.063706-39.269406-17.634195-39.333112-39.333112 0.063706-21.69392 17.634195-39.265658 39.333112-39.326867h157.326203c21.698917 0.062457 39.268157 17.632946 39.333112 39.326867-0.066205 21.698917-17.634195 39.269406-39.334361 39.333112z m-432.644247-78.661228c-42.084981 0-81.540509-16.391295-111.310159-46.019791-29.628496-29.75466-46.008549-69.225178-46.008549-111.310159s16.380053-81.545506 46.008549-111.301415c29.76965-29.764653 69.225178-46.018542 111.310159-46.018542h78.667473v-78.662477h-78.667473C105.670264 472.112267 0 577.767542 0 708.084708c0 130.314668 105.660271 235.989929 235.981185 235.989928v78.667474l118.000585-117.995589-118.000585-117.995589v78.673719zM943.940978 78.793637h-78.654982v78.662477h78.654982c42.082483 0 81.553001 16.385049 111.307661 46.008549 29.762155 29.764653 46.018542 69.225178 46.018542 111.310159 0 42.08623-16.382551 81.545506-46.018542 111.311408-29.75466 29.632244-69.225178 46.008549-111.307661 46.008549v-78.65748l-117.985596 118.005582 117.985596 117.990592v-78.65748c130.313419 0 235.996174-105.675261 235.996174-235.991178S1074.266888 78.798634 943.940978 78.798634v-0.004997z m0 0" p-id="1993"></path></svg>
