<svg t="1567860290576" class="icon" viewBox="0 0 1024 1024" version="1.1" xmlns="http://www.w3.org/2000/svg" p-id="1996" width="200" height="200"><path d="M454.217143 317.586286a65.974857 65.974857 0 0 0-49.152-63.414857 67.072 67.072 0 0 0-74.898286 29.842285 65.243429 65.243429 0 0 0 9.216 79.286857c-17.554286 73.142857 14.116571 149.138286 78.701714 188.781715L431.542857 498.102857a122.002286 122.002286 0 0 1-42.861714-114.614857 66.048 66.048 0 0 0 65.536-65.828571z m57.124571-36.790857c23.04 0 44.617143 6.217143 63.341715 17.042285a65.536 65.536 0 0 0 25.965714 79.213715 67.437714 67.437714 0 0 0 83.821714-8.996572 65.389714 65.389714 0 0 0 8.265143-82.870857 67.291429 67.291429 0 0 0-80.457143-24.868571 177.883429 177.883429 0 0 0-172.397714-16.384l30.573714 43.52c12.726857-4.388571 26.624-6.582857 40.96-6.582858z m124.416 128.365714a123.026286 123.026286 0 0 1-66.267428 103.131428 66.998857 66.998857 0 0 0-76.214857-33.718857 65.974857 65.974857 0 0 0-49.737143 66.194286 66.852571 66.852571 0 0 0 128.146285 22.966857 174.518857 174.518857 0 0 0 116.077715-175.542857l-51.931429 16.969143z" fill="#8797A1" p-id="1997"></path><path d="M827.099429 908.726857H197.046857c-23.552 0-39.350857 15.652571-39.350857 38.985143 0 23.259429 15.798857 38.765714 39.350857 38.765714h630.052572c23.625143 0 39.277714-15.506286 39.277714-38.619428 0-23.405714-15.652571-39.131429-39.277714-39.131429zM984.576 36.717714H39.570286c-23.625143 0-39.350857 15.652571-39.350857 38.912v661.065143c0 23.332571 15.872 38.765714 39.277714 38.765714h945.078857c23.625143 0 39.424-15.433143 39.424-38.765714v-661.211428c0-23.186286-15.798857-38.765714-39.424-38.765715z m-39.277714 477.842286V697.782857H78.994286V114.395429h866.304v400.164571z" fill="#8797A1" p-id="1998"></path></svg>
