<svg t="1584690315117" class="icon" viewBox="0 0 1024 1024" version="1.1" xmlns="http://www.w3.org/2000/svg" p-id="5127" width="200" height="200"><path d="M280 752h80a8 8 0 0 0 8-8v-464a8 8 0 0 0-8-8h-80a8 8 0 0 0-8 8v464c0 4.416 3.584 8 8 8z m192-280h80a8 8 0 0 0 8-8V280a8 8 0 0 0-8-8h-80a8 8 0 0 0-8 8V464c0 4.416 3.584 8 8 8z m192 72h80a8 8 0 0 0 8-8v-256a8 8 0 0 0-8-8h-80a8 8 0 0 0-8 8v256c0 4.416 3.584 8 8 8z m216-432H144a32 32 0 0 0-32 32v736a32 32 0 0 0 32 32h736a32 32 0 0 0 32-32V144a32 32 0 0 0-32-32z m-40 728H184V184h656v656z" p-id="5128"></path></svg>
