<?xml version="1.0" standalone="no"?><!DOCTYPE svg PUBLIC "-//W3C//DTD SVG 1.1//EN" "http://www.w3.org/Graphics/SVG/1.1/DTD/svg11.dtd"><svg t="1569396178365" class="icon" viewBox="0 0 1024 1024" version="1.1" xmlns="http://www.w3.org/2000/svg" p-id="2623" xmlns:xlink="http://www.w3.org/1999/xlink" width="200" height="200"><defs><style type="text/css"></style></defs><path d="M281.6 870.4l460.8 0c14.144 0 25.6-11.456 25.6-25.6l0 0c0-14.144-11.456-25.6-25.6-25.6L281.6 819.2c-14.144 0-25.6 11.456-25.6 25.6l0 0C256 858.944 267.456 870.4 281.6 870.4z" p-id="2624"></path><path d="M742.4 435.2 281.6 435.2c-14.144 0-25.6 11.456-25.6 25.6l0 0c0 14.144 11.456 25.6 25.6 25.6l460.8 0c14.144 0 25.6-11.456 25.6-25.6l0 0C768 446.656 756.544 435.2 742.4 435.2z" p-id="2625"></path><path d="M742.4 563.2 281.6 563.2c-14.144 0-25.6 11.456-25.6 25.6l0 0c0 14.144 11.456 25.6 25.6 25.6l460.8 0c14.144 0 25.6-11.456 25.6-25.6l0 0C768 574.656 756.544 563.2 742.4 563.2z" p-id="2626"></path><path d="M742.4 691.2 281.6 691.2c-14.144 0-25.6 11.456-25.6 25.6l0 0c0 14.144 11.456 25.6 25.6 25.6l460.8 0c14.144 0 25.6-11.456 25.6-25.6l0 0C768 702.656 756.544 691.2 742.4 691.2z" p-id="2627"></path><path d="M281.6 204.8c-42.24 0-76.8 34.56-76.8 76.8s34.56 76.8 76.8 76.8l460.8 0c42.24 0 76.8-34.56 76.8-76.8s-34.56-76.8-76.8-76.8L614.2208 204.8C630.336 183.3856 640 156.8512 640 128c0-70.6944-57.3056-128-128-128-70.6944 0-128 57.3056-128 128 0 28.8512 9.664 55.3856 25.7792 76.8L281.6 204.8zM512 51.2c42.3424 0 76.8 34.4576 76.8 76.8s-34.4576 76.8-76.8 76.8-76.8-34.4576-76.8-76.8S469.6576 51.2 512 51.2zM742.4 256c13.8752 0 25.6 11.7248 25.6 25.6s-11.7248 25.6-25.6 25.6L281.6 307.2c-13.8752 0-25.6-11.7248-25.6-25.6s11.7248-25.6 25.6-25.6L742.4 256z" p-id="2628"></path><path d="M857.6 76.8 702.2592 76.8c-15.7568 0-27.3152 14.0288-25.2672 29.6576 0.0256 0.1664 0.0512 0.3456 0.064 0.512C678.5792 118.8608 688.2304 128 700.1984 128L857.6 128c28.2752 0 51.2 22.9248 51.2 51.2l0 742.4c0 28.2752-22.9248 51.2-51.2 51.2L166.4 972.8c-28.2752 0-51.2-22.9248-51.2-51.2L115.2 179.2c0-28.2752 22.9248-51.2 51.2-51.2l157.4016 0c11.9808 0 21.6192-9.1392 23.1424-21.0176 0.0256-0.1664 0.0384-0.3456 0.064-0.512C349.0688 90.8288 337.5104 76.8 321.7408 76.8L166.4 76.8c-56.32 0-102.4 46.08-102.4 102.4l0 742.4c0 56.32 46.08 102.4 102.4 102.4l691.2 0c56.32 0 102.4-46.08 102.4-102.4L960 179.2C960 122.88 913.92 76.8 857.6 76.8z" p-id="2629"></path><path d="M512 128m-38.4 0a3 3 0 1 0 76.8 0 3 3 0 1 0-76.8 0Z" p-id="2630"></path></svg>