<?xml version="1.0" standalone="no"?><!DOCTYPE svg PUBLIC "-//W3C//DTD SVG 1.1//EN" "http://www.w3.org/Graphics/SVG/1.1/DTD/svg11.dtd"><svg t="1570627734102" class="icon" viewBox="0 0 1024 1024" version="1.1" xmlns="http://www.w3.org/2000/svg" p-id="2573" xmlns:xlink="http://www.w3.org/1999/xlink" width="200" height="200"><defs><style type="text/css"></style></defs><path d="M998.912 829.952V92.16c0-30.208-24.576-54.272-54.272-54.272H206.848c-30.208 0-54.272 24.576-54.272 54.272v66.56H87.552c-30.208 0-54.272 24.576-54.272 54.272v737.792c0 30.208 24.576 54.272 54.272 54.272h737.792c30.208 0 54.272-24.576 54.272-54.272v-66.56h65.024c30.208 0 54.272-24.064 54.272-54.272zM203.264 92.16c0-2.048 1.536-3.584 3.584-3.584h737.792c2.048 0 3.584 1.536 3.584 3.584v737.792c0 2.048-1.536 3.584-3.584 3.584h-65.024V212.992c0-30.208-24.576-54.272-54.272-54.272H203.264V92.16z m622.08 862.208H87.552c-2.048 0-3.584-1.536-3.584-3.584V212.992c0-2.048 1.536-3.584 3.584-3.584h737.792c2.048 0 3.584 1.536 3.584 3.584v737.792c-0.512 2.048-2.048 3.584-3.584 3.584z" p-id="2574"></path><path d="M230.912 361.472h159.744v160.256H230.912V361.472z" p-id="2575"></path><path d="M231.936 361.472h159.744v160.256H231.936V361.472zM515.584 361.472h159.232v160.256h-159.232V361.472zM231.936 641.536h159.744v160.768H231.936v-160.768zM515.584 641.536h159.232v160.768h-159.232v-160.768z" p-id="2576"></path></svg>