<svg t="1571365230838" class="icon" viewBox="0 0 1285 1024" version="1.1" xmlns="http://www.w3.org/2000/svg" p-id="3762" width="200" height="200"><path d="M120.538 1.285C121.68 3 118.68 4 108.256 5 96.973 6.14 81.69 10.854 72.836 15.853c-1.142 0.714-3.427 1.856-5.14 2.57-7.713 3.428-19.424 12.283-29.707 22.423-19.137 19.137-29.991 38.56-36.418 65.267C0.428 111.112 0 217.368 0 512.428c0 340.334 0.286 400.889 2 408.744 7.569 34.419 30.705 66.124 61.125 83.833 12.14 6.998 14.996 8.284 31.134 13.71l9.284 3.143h1076.842l10.711-4c5.856-2.284 11.997-4.426 13.568-4.855 6.712-2.142 27.85-16.138 36.704-24.565 9.569-8.997 22.422-24.993 25.421-31.705 0.857-1.857 3.142-6.284 4.999-9.854 1.857-3.57 3.428-7.712 3.428-9.426 0.142-1.571 1.142-4.142 2.285-5.713 1.142-1.428 2.142-4.284 2.142-6.284 0.143-5.855 1.57-9.997 3.713-9.997 1.714 0 2-60.555 2-401.46 0-354.472-0.286-401.745-2.143-403.173-1.142-0.857-2.713-4.427-3.427-7.998-2.428-12.282-10.283-29.848-18.852-42.845-9.569-14.424-33.705-36.133-45.987-41.417-1.714-0.857-4.142-2-5.285-2.713-8.854-4.999-24.136-9.712-35.418-10.854-10.426-1-13.425-2-12.282-3.714C1162.39 0.571 947.878 0 641.25 0 334.62 0 120.11 0.571 120.538 1.285zM1136.112 68.41c34.704 1.429 38.132 2.143 52.128 11.569 8.426 5.712 20.28 19.137 23.85 27.135 1.143 2.713 3.142 9.426 4.57 14.996 2.143 9.14 2.286 41.988 2.286 389.891 0 414.027 0.428 391.177-8.284 409.029-6.57 13.567-25.993 31.562-34.133 31.562-0.857 0-2.856 1.143-4.427 2.571-2.571 2.285-29.85 2.428-530.852 2.428s-528.282-0.143-530.852-2.57c-1.571-1.286-3.57-2.429-4.428-2.429-7.712 0-27.135-17.566-33.99-30.705-8.855-17.424-8.426 6.426-8.426-409.172 0-399.603-0.143-388.035 6.14-403.459 3.286-8.14 11.997-19.566 19.138-25.278 15.567-12.426 21.137-14.14 50.415-15.425 34.704-1.428 959.16-1.57 996.865-0.143z" p-id="3763"></path><path d="M333.478 346.618c-4.713 1.142-10.282 3.142-12.425 4.141-2 1.143-4.998 2-6.57 2-1.57 0-4.712 1-6.997 2.142-2.143 1-6.856 3.428-10.426 4.999-3.57 1.713-8.283 4.284-10.711 5.855-2.285 1.428-5.285 3.142-6.427 3.713-4.57 2-18.28 13.282-27.707 22.708-22.708 22.708-37.275 47.987-44.559 76.979-5.141 20.423-5.712 66.695-1 83.548 3.285 11.568 7.427 23.993 8.855 26.85 0.714 1.285 2.714 5.284 4.428 8.854 4.713 9.855 11.996 21.423 17.566 28.278 29.278 35.562 62.983 55.27 109.255 63.84 10.283 1.856 46.844 2.142 293.49 2.142 267.068 0 282.35-0.143 296.631-2.714 8.284-1.428 16.424-3.285 18.138-4.284 1.714-0.857 4.856-1.571 6.855-1.571 2.143 0 5.57-0.857 7.57-2 2.142-1.142 6.712-3.142 10.283-4.57 28.706-11.711 59.554-38.56 76.55-66.981 16.852-27.85 23.279-52.271 23.279-88.547 0-26.85-4.856-53.128-12.568-67.553-0.714-1.285-2.714-5.284-4.427-8.854-7.284-15.139-15.71-26.85-28.85-40.275-24.85-25.564-46.558-37.99-85.261-48.986-9.426-2.57-67.41-3.142-73.98-0.571-2.142 0.857-6.57 2-9.711 2.713-25.565 5.284-54.7 22.423-77.836 45.702-20.565 20.708-39.132 54.413-42.845 77.835-0.571 3.856-1.857 8.998-2.713 11.14-0.857 2.428-1.571 14.139-1.571 28.42 0 23.28 1.285 33.705 5.998 47.559 0.714 2.285 1.857 6.14 2.428 8.569 0.571 2.285 2.713 7.855 4.713 12.14s3.999 8.854 4.57 9.996c0.428 1.143 2.142 4 3.713 6.427 1.571 2.285 3.285 5.284 3.856 6.427 0.572 1.143 2.428 4.285 4.285 6.998 1.714 2.57 2.856 5.284 2.428 5.998-0.429 0.714-57.413 1.286-131.25 1.286-108.826 0-130.534-0.286-131.106-2-0.428-1 1.714-5.57 4.856-10.14 7.855-11.568 17.138-31.42 20.709-44.273 3.284-11.426 7.712-39.275 7.712-47.844 0-9.569-3.57-33.705-6.57-44.273-6.712-22.994-16.281-42.274-29.706-59.84-8.14-10.57-29.135-30.278-39.56-37.276-13.996-9.283-37.847-20.137-50.558-22.85-3.142-0.715-7.997-2-10.71-2.857-7.856-2.285-61.84-1.571-72.124 1z m67.125 68.41c16.71 5.712 31.134 13.995 41.274 23.85 6.998 6.855 17.138 19.994 19.28 25.278 0.857 2 2.142 4.57 2.856 5.713 4.856 8.14 10.14 30.42 10.14 43.13 0 5-1 12.854-2.142 17.282-1.142 4.57-2.142 9.283-2.142 10.425 0 1.286-2.856 8.14-6.427 15.282-13.568 27.992-37.418 47.558-67.552 55.556-8.998 2.285-13.997 2.713-27.421 2.142-18.71-0.714-26.993-2.856-43.417-10.997-16.995-8.57-32.99-24.136-42.845-41.988-15.996-28.992-15.996-67.124 0.143-96.402 9.711-17.424 29.135-36.561 43.273-42.274 1.143-0.571 3.285-1.57 4.856-2.428 4.428-2.285 15.424-5.712 22.994-6.855 10.997-1.857 38.846-0.428 47.13 2.285z m538.992 0.57c8.283 2.714 11.711 4.142 17.28 7.427 1.143 0.571 3.428 1.714 5 2.428 5.57 2.57 19.994 15.281 26.85 23.707 6.997 8.855 14.138 22.566 18.851 36.419 2.142 6.14 2.714 11.996 2.714 27.135-0.143 19.995-1.143 25.564-8.141 41.417-25.993 58.84-101.686 78.692-153.1 40.275-13.425-9.998-26.993-26.136-31.42-37.419-0.571-1.142-1.714-4.141-2.714-6.426-4.998-11.283-6.57-20.566-6.57-37.847 0-17.138 1.572-26.85 6.428-37.846 1-2.428 2.285-5.285 2.713-6.427 0.429-1.143 2.142-4.142 3.713-6.427 1.571-2.428 3.428-5.57 4.142-7.14 2.142-4.571 20.28-22.138 27.992-27.136 11.854-7.57 26.136-13.282 37.847-15.139 11.71-2 38.703-0.285 48.415 3z" p-id="3764"></path></svg>
