<svg t="1570626485909" class="icon" viewBox="0 0 1024 1024" version="1.1" xmlns="http://www.w3.org/2000/svg" p-id="4045" width="200" height="200"><path d="M861.696 771.072L671.744 487.936c-24.064-38.4-35.84-83.968-35.84-133.12V178.688c0-36.864 24.064-62.976 28.16-79.872 4.096-15.872 1.024-15.872-28.672-15.872H395.264c-30.208 0-35.328 0-30.72 15.872 4.608 17.408 29.184 44.032 29.184 80.384v175.104c0 48.64-13.824 94.208-37.888 133.12L262.656 632.32l-93.184 138.24c-10.752 16.896-16.896 39.424-16.896 60.928 0 53.248 30.72 99.84 119.808 99.84h487.424c89.088 0 119.808-46.592 119.808-99.84-1.024-21.504-7.168-43.52-17.92-60.416z m-56.32 85.504c-8.192 8.192-22.016 14.336-46.592 14.336H271.36c-24.064 0-39.424-6.656-47.616-14.336-5.12-5.12-11.264-13.312-11.264-25.088 0-9.216 2.56-18.944 7.168-26.624L407.04 520.192c29.696-47.616 46.592-104.448 46.592-164.352V144.896h121.344v209.92c0 58.88 14.848 116.224 45.056 164.864l190.464 284.16c4.608 7.68 7.68 17.408 7.68 27.136 0 11.776-7.68 20.992-12.8 25.6z m-37.888-55.808s0.512 0.512 0 0L612.352 568.32H416.256l-153.6 232.96c-3.072 4.096-4.608 9.728-4.608 14.848 0 14.336 11.776 26.112 26.112 26.112h461.824c14.336 0 25.6-12.8 25.6-26.624 0.512-4.608-1.536-11.264-4.096-14.848zM602.624 668.672c-3.072-3.072-4.608-6.656-4.608-10.752s1.536-8.192 4.608-10.752c3.072-3.072 6.656-4.608 10.752-4.608s8.192 1.536 10.752 4.608c3.072 3.072 4.608 6.656 4.608 10.752s-1.536 8.192-4.608 10.752c-3.072 3.072-6.656 4.608-10.752 4.608s-8.192-2.048-10.752-4.608zM691.2 780.288c-2.56 1.536-5.632 2.56-8.192 2.56-4.608 0-9.728-2.56-12.288-6.656l-44.544-68.096c-4.608-7.168-2.56-16.384 4.096-20.992 2.56-1.536 5.632-2.56 8.192-2.56 5.12 0 9.728 2.56 12.288 6.656l44.544 68.096c5.12 7.168 3.072 16.896-4.096 20.992z" p-id="4046"></path></svg>
