<?xml version="1.0" standalone="no"?><!DOCTYPE svg PUBLIC "-//W3C//DTD SVG 1.1//EN" "http://www.w3.org/Graphics/SVG/1.1/DTD/svg11.dtd"><svg t="1573370100455" class="icon" viewBox="0 0 1024 1024" version="1.1" xmlns="http://www.w3.org/2000/svg" p-id="2492" xmlns:xlink="http://www.w3.org/1999/xlink" width="200" height="200"><defs><style type="text/css"></style></defs><path d="M945.8 389.9S538.3 103.3 535 101.2c-25.1-17.4-25.1-17.4-51.2 1.1L74.1 389.9c-13.1 8.7-14.2 28.3-4.4 42.5 9.8 14.2 29.4 18.5 41.4 9.8l28.3-20.7v476.2c0 17.4 14.2 32.7 32.7 32.7 18.5 0 32.7-14.2 32.7-32.7V377.9L510 162.2l310.5 219v109.6c0 17.4 14.2 32.7 32.7 32.7 17.4 0 32.7-14.2 32.7-32.7v-62.7l21.8 14.2c13.1 8.7 30.5 4.4 41.4-9.8 10.9-15.3 7.6-33.9-3.3-42.6z" p-id="2493"></path><path d="M280.33333333 820.8h102.4v102.4H280.33333333zM280.33333333 667.2h102.4v102.4H280.33333333zM280.33333333 509.3h102.4v102.4H280.33333333zM939.13333333 880.9c11.8 0 19.2-3.2 23.3-11.3 4.1-8.2 2.1-54.1 2.1-67V596.4c0-29.7-1.8-35.8-32.5-35.8H725.73333333C655.33333333 560.6 664.33333333 554 664.33333333 638v205.3c0 30 0.4 37.6 31.9 37.5H764.33333333c13.8-81.1 126.5-81.1 140.3 0 11.5 0 23 0 34.5 0.1z m-314.7-0.4c15.1-0.1 19.9-11.3 19.9-26v-185c0-15.3-2.7-26.5-17.3-28.6l-92.5-0.3c-16.7 0.6-21.6 9.8-28.9 18.2-3.1 3.7-6.7 8.8-10.1 13.3-13.6 18.2-38.7 48.8-46.8 68.1-7.6 18.3-4.7 64.8-4.7 87.8 0 37.3-5.9 57.7 39.6 52.4 3.9-9 3.4-15.1 8.6-24.5 30.3-53.2 116.3-50.1 132.2 24.6zM477.93333333 760.7c0.5-10.7 27.8-44.9 36.3-56.7 7.2-10.1 13.6-22.8 23.4-23.4 12.9-0.7 33.6-0.6 46.6 0.2v79.8c-27.9 0.9-77.1 0.4-106.3 0.1z m0 0" p-id="2494"></path><path d="M789.53333333 880.6c-6.5 27.8 13.2 50.5 34.7 55.3 27.9 6.3 49.9-12.8 55.1-34.4 6.9-28.7-12.7-50-34.5-55.6-28.1-7.1-50.3 13.2-55.3 34.7zM508.33333333 886.2c-2.5 27.1 17.4 48.4 41.5 50.5 27 2.5 48.3-17.6 50.3-42.1 2.3-27.4-17.9-47.2-42.4-49.7-25.9-2.5-47.1 17.9-49.4 41.3z" p-id="2495"></path></svg>