<svg t="1567863202039" class="icon" viewBox="0 0 1024 1024" version="1.1" xmlns="http://www.w3.org/2000/svg" p-id="3057" width="200" height="200"><path d="M139.264 114.4576c-20.2624 0-33.7664 13.504-33.7664 33.7664v742.8992c0 20.2624 13.504 33.7664 33.7664 33.7664h742.8992c20.2624 0 33.7664-13.504 33.7664-33.7664V148.224c0-20.2624-13.504-33.7664-33.7664-33.7664H139.264z m0-67.5328h742.8992c54.0288 0 101.2992 47.2704 101.2992 101.2992v742.8992c0 54.0288-47.2704 101.2992-101.2992 101.2992H139.264c-54.0288 0-101.2992-47.2704-101.2992-101.2992V148.224c0-54.0288 47.2704-101.2992 101.2992-101.2992z m405.2096 270.144h202.6112c20.2624 0 33.7664 13.504 33.7664 33.7664s-13.504 33.7664-33.7664 33.7664H544.4736c-20.2496 0-33.7664-13.504-33.7664-33.7664 0.0128-20.2624 13.5168-33.7664 33.7664-33.7664zM341.8752 722.2912c20.2624 0 33.7664-13.504 33.7664-33.7664s-13.504-33.7664-33.7664-33.7664c-20.2496 0-33.7664 13.504-33.7664 33.7664 0 20.2496 13.504 33.7664 33.7664 33.7664z m0 67.5328c-54.0288 0-101.2992-47.2704-101.2992-101.2992s47.2704-101.312 101.2992-101.312 101.312 47.2704 101.312 101.312c-0.0128 54.016-47.2832 101.2992-101.312 101.2992z m-6.7584-411.9808l-74.2912-74.2912c-13.504-13.504-33.7664-13.504-47.2704 0-13.504 13.504-13.504 33.7664 0 47.2704l94.5536 94.5536c6.7584 6.7584 20.2624 13.504 27.008 13.504 6.7584 0 20.2624 0 27.0208-6.7584l141.824-141.824c13.504-13.504 13.504-33.7664 0-47.2704-13.504-13.504-33.7664-13.504-47.2704 0l-121.5744 114.816z m209.3568 276.9024h202.6112c20.2624 0 33.7664 13.504 33.7664 33.7664s-13.504 33.7664-33.7664 33.7664H544.4736c-20.2496 0-33.7664-13.504-33.7664-33.7664 0.0128-20.2624 13.5168-33.7664 33.7664-33.7664z m0 0" p-id="3058"></path></svg>
